<svg version="1.2" xmlns="http://www.w3.org/2000/svg" viewBox="0 0 963 319" width="963" height="319">
	<title>trace (3)</title>
	<style>
		.s0 { fill: #f1f1f1 } 
	</style>
	<path fill-rule="evenodd" class="s0" d="m126.5 44.7c-55.3 7.7-77.5 73-38.2 112.5 5.1 5 7.6 8.2 7.1 9-0.5 0.7-6.5 9.2-13.5 18.8-39.7 54.8-43 63.2-28.1 71.3 11.3 6.2 18.4 4.2 23.8-6.4 2.8-5.6 3.2-5.8 6.3-2.5 2.2 2.3 2.2 2.4 0.7 10.6-3.3 17.1-0.1 24 11 24 4 0 10.7-6.1 14.5-13.1 0.6-1.3 2-3 3.1-3.9 1.2-1 2-3.5 2.5-8 0.7-7.3 0.6-7.4 5.2 7.6 5.6 18.3 15.8 24.2 22.4 12.8 0.7-1.2 2.1-3.4 3.2-4.9 2.4-3.5 2.3-10-0.4-23.4-1.8-9.2-1.8-9.5 0-12.5 1.1-1.7 2-4 2-5.1 0.5-5.3 1.7 12.7 1.8 25.8 0.2 21.7 3.1 25.1 19.5 22.8 4.3-0.6 14.4-1.1 22.5-1.1h14.7l4-4.3c5.1-5.4 9-10.7 9.7-13.2 0.2-1.1 0.5-0.2 0.6 2 0.4 13.8 7.8 20.8 18.3 17.3 4.1-1.4 4.8-2.1 11.6-11.8 1.5-2.2 1.7-5.1 1.4-28.1-0.4-28.8-1.1-26.3 7.7-27.5 5.9-0.8 10.7-3.5 12.3-6.9 0.6-1.4 1.5-2.5 2-2.5 1.1 0 1 3.8-0.2 4.5-1.3 0.8-1.3 8.1 0.1 10.6 0.5 1.1 2.1 13.2 3.3 26.9 2.5 26.3 2.6 26.5 8.5 32.9 4 4.3 10.2 4.1 20.4-0.7 8.4-4 31.1-11.6 39.2-13.2 9.1-1.7 10.7-2.6 14.5-8.2l3.5-5.2 1.2 10.5c2 17.8 3.8 20.9 11.8 20.9 4.8 0 9.5-3 13.7-8.8 4.5-6.1 5-8.1 4.6-18.4-0.2-5.4-0.1-9.8 0.2-9.8 1.2 0.1 11.9 20.9 12.9 25.5 2.8 11.5 13.8 15.4 19.8 6.9 1-1.3 3.1-4.1 4.7-6.2l2.8-3.7-0.4-14.7c-0.4-13.4-0.3-14.7 1.1-13.6 3.3 2.5 4.1 4.3 4.1 9.2 0.1 31 11.7 42.7 24.2 24.4 5.2-7.5 5.8-9.7 5.8-20.9 0-11.5-1.4-10.5 13.5-8.8 11.7 1.3 13.3 0.7 19.7-7.8l4.6-6.2 0.7 5.7c0.3 3.1 1.2 12.3 1.9 20.4 2.1 24.7 9.4 30.7 27.2 22.3 11.7-5.5 30.3-11.5 47.1-15.1 1.3-0.2 4.1-2.7 6.3-5.5l4-5.1v10.5c0 15.6 3.9 19.1 18.8 16.8 3.9-0.6 13.9-1.1 22.2-1.1h15.1l4.2-4.4c7.3-7.5 9.9-11.7 9.4-15.1-2.5-15.6-7-18.3-27.2-16.6-12.1 0.9-10.7 2.4-11.6-12.2-3.1-50.3-2.8-49.5-15-52.3-7.5-1.7-12.1-0.7-14.6 3.4-1 1.5-2.7 4-4 5.5-2.8 3.4-2.9 7.5-0.8 26.2 2 17.6 2 16.9-1.1 14-1.5-1.4-3.3-2.5-4.1-2.5-1.1 0-1-0.6 0.6-2.5 4.3-5.6 3.5-10.5-3-18-3-3.3-3.1-5.5-0.4-5.5 1.6 0 2.5-2.2 2.5-6.5 0-8.5-5.1-13-13.7-12.1-3.5 0.4-5.3 0.2-5.5-0.6-1.5-4.5-53.2 10.5-55.3 16.1-0.5 1.2-1 0.9-2-1.6-2.2-5.1-6.2-6.9-17.3-7.7-13-1-35.4-4.3-40.5-6.1-8.2-2.9-13.5-1.7-15.7 3.5-0.7 1.6-1.6 3-2.1 3-4.3 0-4.5 8.1-0.3 23.8 2.3 9 2.5 10.7 1.3 12.8-1.7 3.3-2.3 1.7-3.4-8.1-1.7-16.4-5.1-29.5-7.7-29.5-0.5 0-2.1-0.9-3.5-2-6.3-4.9-11-2.9-20 8.7-1.1 1.5-2.3 2.6-2.5 2.3-13-17.3-20-18.2-29.6-3.7-1.5 2.2-3.5 5.1-4.5 6.6-1.6 2.3-1.8 4.5-1.5 18.2l0.3 15.7-3.3-3.4c-1.8-1.9-3.9-3.4-4.7-3.4-1.1 0-0.8-1 1-3.6 3.7-5.4 1.7-12.9-4.8-18.3-2.3-1.9-2.1-3 0.8-4.1 2.2-0.8 2.5-1.6 2.5-5.4 0-9.3-4.7-14.1-13.1-13.2-2.6 0.3-5.1 0-5.7-0.6-4.5-4.5-53.3 10.3-55.9 17-1 2.4-1.1 2.4-1.2 0.6-0.1-1.2 0.6-2.7 1.4-3.4 2.8-2.3 1.1-14.1-2.3-15.8-0.9-0.5-4.6-0.5-8.2-0.1-3.6 0.5-19.7 1.2-35.7 1.5l-29.3 0.7-3.7 3.7c-16 15.6-10.3 30.7 12.4 33 10.6 1.1 9.5-1.5 8.7 21.5-0.6 17.5-2.9 26.3-3.4 13-0.2-7.1-8.8-10-25.5-8.7-5.5 0.5-10.1 0.8-10.2 0.8 0-0.1-1-12.6-2.1-27.8-2.4-34.4-2.4-34.5-13.1-37.1-8.3-2-12.6-1-15.8 4-1 1.5-2.6 3.5-3.5 4.5-2.8 2.8-3 5.7-1.4 21.5 2 18.6 2 18.4-0.3 14.7-1-1.7-3-3.9-4.5-5-2.5-1.8-2.7-2.5-3.2-13.4-0.4-6.8-1.2-12.1-1.9-13-0.7-0.8-2-2.9-2.9-4.7-1.8-3.6-11-9.3-15-9.3-2.6 0-3.5-1.3-1.6-2.5 0.5-0.3 4.9 0.2 9.7 1.1 22.6 4.2 45.3-2 60.8-16.7l7.2-6.9 2.6 2c24.6 19.4 60.8-5 53.8-36.3-2.8-12.5-19.2-14.9-16.7-2.4 4 19.3-1.7 30.9-15.8 32.4-12.1 1.2-17.2-4.9-13.3-15.9 4.2-11.7 4.9-15.5 4.8-26.4 0-10 0-10.4 2.7-12.5l2.7-2.1 0.8 15.4c1.2 22.7 3.3 28.6 9.9 27.6l2.3-0.3v-26.9c0-34.2-1.9-37.3-17.3-27.7-2.9 1.8-5.4 3.2-5.6 3-0.2-0.2-2-3-4-6.3-13.4-21.1-47.7-35.7-75.1-31.9zm-1.3 3.4c-44.1 6.4-67.9 56.4-45.1 94.5 21.3 35.4 75.9 43.2 105.6 15l6.7-6.3-2.9-4.5-3-4.4-6.6 6.7c-43.2 43.8-119.4-6.5-92.7-61.1 19.7-40.3 87.5-40.8 104.8-0.7 3 6.8 2.6 6.7 7.4 1.8l3.9-4-2.8-4.8c-9.8-16.7-31.4-29.2-55.6-32.3-9.4-1.1-10.8-1.1-19.7 0.1zm-1.7 13.3c-60 17.1-46.5 100.6 16.2 100.6 22.1 0 47.6-15.6 44.3-27.1-2.6-9 0.1-25.9 5.4-33.9 12.5-19-35.9-48.1-65.9-39.6zm-6 10.9c-13.5 6.4-30.8 35.6-22.6 38.2 3 0.9 4.5-0.6 8.7-8.5 4.3-8.2 12.7-16.8 20.4-20.9 13.9-7.4 7.8-15.5-6.5-8.8zm516.5 1.7c-3.6 3.8-8.6 15.9-11.4 27.3-2.2 8.9-2.2 8.9-6.2 10.3-9.9 3.4-11.1 21.5-1.3 18.6 1.3-0.3 1.2 0.7-1.2 13.1-3 15.4-1.3 20.7 6.4 20.7 5 0 7.2-3.5 8.6-13.8 1.5-10.8 2.5-12.3 1.5-2.2-1 10.2 1 8.8 2.4-1.8 0.7-4.8 1.7-10.4 2.3-12.5l1-3.8 5.1 0.3 5.1 0.3 3.1 11.5c5.5 19.9 10.9 27 15.9 20.9 2.2-2.8 2-6.6-1.4-23.6l-2.1-10.2 2.1-2.7c4-5 1.6-13.3-4.3-14.8-2.3-0.6-2.4-1-3.2-12.8-0.7-10.1-0.9-11.4-1.4-7.3-0.6 4.9-0.6 4.9-1.4-3.3-0.8-8-3.1-13.2-5.8-13.2-0.5 0-2.1-0.9-3.5-2-3.6-2.8-7-2.5-10.3 1zm-299.5-1.3c-4.4 1.1-6.3 7.1-3.3 10.1 1 1 1 1.7 0 3.2-0.9 1.5-0.9 3.3 0.2 8.3l1.3 6.4-2.7 1c-5.2 1.9-2.9 10.1 3.5 12.9 2.2 1 7.2 26.2 7.4 37 0.2 11.2 11.4 14.4 12.7 3.7 0.4-3.3-1.4-34-2.2-36.6-0.5-1.5 0.2-1.7 5-1.7h5.6l4.3 8.7c2.4 4.9 6.8 14.7 9.8 22l5.4 13.1 4 0.5c11.5 1.2 9.5-12.8-5.5-38.2l-3.2-5.4 9.7 0.7c11.8 0.8 13.5-0.1 13.5-7.1 0-12.4-50.8-42.3-65.5-38.6zm-216 2.7c-8.4 4-17.5 15.2-21 25.7-2.7 7.9-1.1 7.9 3 0.1 4.7-8.9 14.1-18.6 22.3-23 9.8-5.2 5.9-7.7-4.3-2.8zm294.7-0.3c-7.9 3.9-10.8 10.7-5.4 12.7 8.9 3.3 24.2-3.2 21.4-9.2-2.3-5.1-9.5-6.7-16-3.5zm147.3-1.1c-3.8 0.4-16.9 0.8-29 1-12.1 0.1-21.5 0.3-21 0.6 0.6 0.2 4.4 0.8 8.5 1.3 7.3 1 7.2 1-2.6 0.5l-10.1-0.5-2.2 2.7c-6.2 7.9 3.8 16.9 20.2 18l9.6 0.7-0.6 27.1c-0.5 23.4-0.4 27.6 1 30.8 2.8 6.7 10.5 7.8 12.5 1.8 1.4-3.7 2.1-3.9 1.5-0.3-0.4 2.7-0.4 2.7 1.1 0.9 1.4-1.7 1.6-6.3 1.6-32.1v-30.2l10.7-1.8c11.1-1.9 15.3-4.1 15.3-8.1 0-1 0.8-2.6 1.7-3.6 1.4-1.6 1.5-2.4 0.5-5-0.6-1.7-0.9-3.5-0.6-3.9 0.6-1-7.7-0.9-18.1 0.1zm29 0.9c-9.7 4.4-11.9 12-4 13.6l3 0.6-3.2-1.5c-2.4-1.1-3.3-2.2-3.3-3.8 0.1-2.3 0.1-2.3 1.5 0.3 4.3 7.9 25.1 2.6 21.4-5.4-2.4-5.2-8.9-6.8-15.4-3.8zm-322.4 0.9c-2.2 1.7-2.2 1.9-1.2 18.2 1.4 23.7 0.3 22.3-2-2.5-1.5-16.8-2.1-15.7-1.8 3.6l0.2 16.7-3.6 3.2c-5.6 4.9-4.8 11 1.4 11h2.7l0.7 14.9c0.8 16 2.8 21.1 8.4 21.1 6.8 0 8.2-3.8 8.9-22.6l0.5-15.1 7.9-0.7c10.2-0.9 9.4-2.4 10 19.4 0.6 20.6 1.3 23 6.3 23 5.8 0 8.1-6.7 9.1-26.3 0.7-13.5 0.7-13.7 3.1-14.3 6.4-1.7 7.8-14.5 1.8-17l-3.3-1.3-0.3-13c-0.5-16.4-3.8-21.2-12.4-17.7-5.1 2.2-5.5 3.9-4.8 17.9l0.6 12.4-8.9 1c-4.9 0.6-9 0.9-9.1 0.9-0.1-0.1-0.6-6.2-1.2-13.6-0.7-10.4-1.2-13.6-2.5-14.5-0.9-0.7-1.6-1.7-1.6-2.3 0-3.4-5.8-5-8.9-2.4zm171.4 0.7c-6 5.9-0.8 16.2 14.9 29.7 20.5 17.5 33.4 35.7 27.7 38.8-12.1 6.4-24.5-2.3-28.5-20-5.1-22.7-5.7-24-10.3-24-6.9 0-8.2 11.9-3.4 31.7 1.1 4.5 2.5 11.3 3.1 15 1.2 7.6 4.3 14.8 6.7 15.7 1.8 0.7 6.3-3 6.3-5.2 0-1 0.6-1.2 1.8-0.7 18.8 8 36.7 3 38.7-10.9 1.6-10.5-4.1-19.9-24.3-40.4-11.8-11.8-11.8-11.8-5.2-9.3 12.2 4.6 20.2 11.8 21.4 19 0.7 4.7 4.4 9.1 7.5 9.1 3 0 3.9-2.6 2.8-8.3q-0.9-5.2 0.2-17.2c1.4-15.8 0.1-20.5-5.9-20.5-4.5 0-6.4 2.2-6.5 7.4 0 2.5-0.1 4.6-0.3 4.6-0.1 0-2.8-1.7-6-3.9-16.7-11.3-35.2-16.2-40.7-10.6zm321.9 0.4c-2.5 1.1-5 3.3-6.4 5.5-2.6 4.4-3.8 4.1-1.5-0.3 0.8-1.7 1.3-3.1 1-3.1-4.6 0-13.9 30.6-13.9 45.5 0 46.6 42.4 53.6 48.5 8 4.6-35-9.7-63.8-27.7-55.6zm-82.8 2.5c-1.4 1.9-2.6 4.5-2.6 5.8 0 1.8-0.2 2-1 0.8-1.2-1.8-1.3 22.4-0.2 45.5l0.7 16 0.6-11 0.6-11-0.1 12.8c-0.1 7 0.2 12.7 0.6 12.7 0.4 0 0.8 2.4 1 5.2 0.4 7.5 4 9.3 9.9 5.2 5.4-3.7 5.1-1.6 4.9-30.2 0-16 0.3-25.3 0.9-24.7 2.7 2.9 24.1 42.8 24.7 46.1 1.9 10.9 10.8 14.1 14.5 5.2 2.6-6.4-2.1-59.5-6.7-75-0.9-3.2-3.7-2.2-2.9 1 1.6 6.2 4.5 22.4 4.4 24.5-0.1 1.2-0.7-1.2-1.5-5.3-4.6-25.8-8.9-32-15.6-22.9l-2 2.6 3.7 18.7c4.5 23 4.4 23.5-3 8.9-15-29.3-24.7-39-30.9-30.9zm-331.6 11.2c0 0.8 0.6 1.4 1.4 1.4 1 0 1.7 1.6 2.2 4.5 0.7 4.8 1.6 5.4 4.1 2.9 1.8-1.8 5.3-1.2 9.3 1.6 1.4 1 5.2 2.1 8.5 2.5l6 0.6-5-3.2c-10.6-6.9-26.5-13.1-26.5-10.3zm419-0.5c0 0.5-0.5 0.7-1.2 0.3-0.7-0.4-0.8-0.3-0.4 0.4 0.4 0.6-0.1 4-1.1 7.4-1.4 5-1.8 10.1-1.8 24.6 0 11.7-0.3 17.2-0.8 15-1.8-7.1-1.1-30.8 1.1-38.3 2.9-9.9 1.9-9.4-1.3 0.6-3.9 12.3-4.3 33.4-0.9 42.4 0.4 1-0.4 1.5-2.7 1.7l-3.2 0.3 3 3.2c13.9 14.8 23.3-16.5 14.7-49.3-2-7.7-5.4-12.9-5.4-8.3zm-351.2 2c-7.4 3.9-9.3 15.8-6.9 43.1 2.1 23 8.7 31.7 17.7 23.3 1.5-1.4 3.3-2.5 4.1-2.5 1.1 0 1.3-0.9 0.9-3.8-1.4-8.7-2.6-26.7-2.8-40.2-0.1-14.1-0.1-14.3-0.8-5.5-0.4 5-0.6 11.7-0.4 15 0.3 5.5 0.3 5.7-0.6 2-0.5-2.2-0.9-9.9-0.9-17.2-0.1-16.6-1.7-18.8-10.3-14.2zm176.2-0.2c-7.9 4.2-9.9 17.7-7.1 46.9 1.9 18.8 10 28.1 17.3 19.7 1.2-1.4 2.9-2.5 3.8-2.5 1.4 0 1.4-1.2 0.3-12.3-0.7-6.7-1.4-19.5-1.5-28.4-0.4-19.9-1.6-21.4-2.1-2.5l-0.3 13.7-0.2-16.3c-0.2-20.1-1.8-22.9-10.2-18.3zm84.4 15.6c0 9.3 0.2 13.3 0.3 8.8 0.2-4.5 0.2-12.2 0-17-0.1-4.8-0.3-1.1-0.3 8.2zm-35.8-7.3c-3.4 11.6-3.3 11.8 0.8 11.8h3.6l-0.7-6.2c-1.1-11.2-1.7-12.1-3.7-5.6zm-434.6 3.9c-5.2 8.5-7.4 22.9-4.6 29.4l1.3 3 1.7-4c5.5-12.9 6.9-36.9 1.6-28.4zm382.8 9.2c-0.3 4.5-0.2 10.2 0.2 12.7 0.6 3.3 0.8 1.2 0.9-8.2 0.1-14.7-0.4-16.6-1.1-4.5zm-175.4 4.7c0 6.3 0.1 8.9 0.3 5.8 0.2-3.2 0.2-8.4 0-11.5-0.2-3.2-0.3-0.6-0.3 5.7zm-317.3-3.1c-1.8 1.2-2.9 7.1-1.9 10.8 1 3.9 4.2 5.2 6.9 2.7 4.4-4-0.1-16.5-5-13.5zm0.7 4.9c-0.6 2.3 0.5 6.3 1.7 6.3 1.3 0 1.8-2.7 1.1-5.7-0.7-2.8-2.2-3.2-2.8-0.6zm258.6 0.2c0.3 1.4 0.9 8.5 1.2 15.8 0.5 9.4 1 12.9 1.7 11.7 1.1-2.1-0.9-26.1-2.4-28.5-0.8-1.1-0.9-0.9-0.5 1zm-265.8 62.1c-31.2 43.4-32.1 45.1-25.7 48.4 2.7 1.3 5.2 2.9 5.5 3.4 1.4 2.2-1.7 2-6.8-0.6-4.3-2.1-5.9-2.4-6.8-1.5-0.9 0.9-0.1 1.6 3.5 3.2 2.6 1.1 6.7 2.9 9.2 3.9 4.2 1.9 6 4.1 3.3 4.1-0.7 0-5.1-1.6-9.8-3.5-5.1-2.1-8.8-3.1-9.3-2.6-1.1 1.1 5.9 4.8 15.3 8.1 3.6 1.3 7 2.7 7.6 3.2 1.5 1.1 5.7-6.7 4.9-9.1-1.2-3.8 2-10 9.3-17.9 4-4.3 5-6.1 9.6-18.1 2.1-5.3 5.7-12.2 8.5-16 4.7-6.5 8.6-13.1 7.9-13.5-4.3-2.2-14-6.6-14.6-6.6-0.4 0-5.6 6.8-11.6 15.1zm765.7-3.7c-1.7 0.8-3.7 2.5-4.4 3.8-0.6 1.3-2.3 3.6-3.5 5.1-2.6 3.1-3.2 13-1.2 21 1.6 6.7-0.9 7.8-4.2 2-1.5-2.6-3.7-5.7-4.9-6.7-2.7-2.5-2.7-3.4 0.4-4.6 2.2-0.8 2.5-1.6 2.5-5.4 0-9.3-4.7-14.1-13.1-13.2-2.6 0.3-5.1 0-5.6-0.5-4.4-4.4-54.4 10.6-55.9 16.8-0.4 1.3-1.4 2.8-2.4 3.3-2.9 1.6-4.3 14.8-2.3 22.5 0.6 2.2 1.3 6.8 1.6 10.3l0.5 6.3-5.6-9.2c-25.6-41.4-63.8-61.6-77.1-40.6-1.1 1.7-2.8 4.2-3.7 5.4-1.5 2.2-1.4 3.4 2.5 22.2 4.7 23 4.8 23.2 2.1 25.6-1.1 1-2 2.3-2 2.8 0 0.6-1.1 2.3-2.5 3.7-6.6 6.9-3.8 15.1 6.9 20.6 5.1 2.6 7.6 4.6 8.5 6.6q2.9 6.4 13 5.4c7.6-0.8 9-0.8 21.2 0 17.2 1.1 25.7-2.5 34.1-14.4l4.8-6.7v3.8c0 14.8 11.8 21.2 26.4 14.3 9.3-4.4 23.9-9.4 37-12.7 13.1-3.3 14.7-4.3 19.8-12.1 3.1-5 3.6-12.2 1.2-18.2-0.5-1.3-0.4-1.7 0.4-1.2 2.1 1.3 4.1 12 6.1 32.5 1 9.8 4.9 15.1 11.2 15.1 4.8 0 14.8-11.6 15-17.4 0.1-7.3 2.6-16.3 3.6-13.6 0.6 1.4 3.4 8 6.2 14.6 2.8 6.7 5.1 12.7 5.1 13.2 0 3.1 14.8 3.4 17 0.3 0.8-1.2 2.8-3.8 4.4-5.9 4.7-6.1 3.7-12.8-5-32.9-0.3-0.6 0.8-1.4 2.5-1.8 1.7-0.4 3.9-1.8 4.9-3.1 0.9-1.4 2.9-4 4.3-5.9 4.3-5.6 4.2-18.5-0.1-18.5-0.4 0-2.2-1.6-4.1-3.6-15.4-16.3-55-33.8-65.6-29zm3.2 3.3c-4.4 1.1-6.3 7.1-3.3 10.1 1 1 1 1.7 0 3.2-0.9 1.5-0.9 3.3 0.2 8.5l1.4 6.5-2.5 0.6c-5.9 1.5-4.1 8.8 3.3 13 2.1 1.2 7.1 26.8 7.3 37 0.2 8.9 6.1 13.2 11.1 7.9l2.3-2.4-1.3-19.3c-0.7-10.6-1.4-19.6-1.7-20.1-0.2-0.4 2.1-0.7 5.1-0.7h5.6l3.6 7.2c3.9 7.8 15.4 34.4 15.4 35.7 0 1.3 9.4 2 10.7 0.9 4-3.3-3.4-25.7-12.8-38.9-2.9-4.1-2.6-4.2 7.7-3.5 13.7 0.9 19.1-6.4 10.2-14.1-1.7-1.6-4.1-3.8-5.2-5.1-9.8-10.9-48-28.6-57.1-26.5zm-743.4 3c-3.4 3.4-8.3 15.2-11.2 26.6-2.1 8.3-2.2 8.5-5.8 9.6-4.8 1.4-9.9 10.2-7.8 13.4 0.9 1.4 5.9 4.9 7.4 5.2 0.1 0.1-0.7 4.3-1.7 9.5-2.6 12.4-2.6 17 0 19.8 4.4 4.6 12.9 1.2 13-5.2 0.1-1.1 0.7-5 1.4-8.6l1.4-6.5-0.6 7.4c-0.4 5.5-0.2 7.2 0.6 6.7 0.7-0.4 1.2-2.4 1.3-4.4 0-2 0.8-7.3 1.7-11.7l1.7-8h5 5l2.8 10.5c4.2 15.9 8 23 12.2 23 5.1 0 5.7-5.3 2.4-22.2l-2.2-10.8 2.3-4.3c2.9-5.4 1.9-9.1-3.1-12.5-3.7-2.5-4.4-5.2-5-18.7l-0.2-6-0.6 4.5-0.7 4.5-0.7-7c-1-9.1-1.8-11.6-4.2-12.9-1.1-0.6-3.1-1.9-4.4-2.9-3.4-2.5-6.8-2.1-10 1zm42.5-0.8c-1.9 2.1-1.5 10.9 2.1 42.1 0.8 7.4 1.4 19.4 1.4 26.7-0.2 18.2-1.1 17.6 19.4 13.8 4.4-0.8 13.9-1.4 21.2-1.5 10.6 0 13.5-0.3 14.7-1.6 1.8-1.7 2.1-6 0.6-6.9-0.6-0.3-1-1.7-1-3 0-6.1-17.5-8.7-33.2-5l-2.6 0.7-0.6-8.9c-2-29.2-3.8-48.6-4.8-51.5-1.5-4.5-3-6-1.8-1.7 0.6 1.8 0.9 5.4 0.9 7.9-0.1 4.1-0.3 3.9-1.6-3.1-1.2-6.4-1.9-7.8-3.9-8.8-3.9-1.7-8.9-1.3-10.8 0.8zm103.4-0.9c-3.6 0.4-16.9 0.9-29.5 1-12.7 0.1-22.6 0.3-22 0.6 0.5 0.2 4.1 0.8 8 1.3l7 1-9.2-0.4c-14-0.7-17.9 4.4-10.2 13.3 4.4 5.1 7.3 6.2 18.7 6.9l9.3 0.6-0.7 26.6c-0.8 28.9-0.3 32.8 4.1 35.7 4.3 2.8 7.7 1.5 9.7-3.6l1.8-4.5-0.3 3.8c-0.3 3.2-0.1 3.5 1.1 2.3 1.1-1.1 1.4-6.9 1.3-31.8l-0.2-30.5 10.3-1.7c11.5-1.9 14.5-3.3 15.4-7.4 0.4-1.5 1.3-3.5 2.2-4.4 1-1.2 1.2-2.6 0.7-4.5-0.5-1.5-0.7-3.4-0.6-4.1 0.2-1.3-5.8-1.4-16.9-0.2zm341.7 0.5c-2.2 2.2-2.2 6.4 0.4 30.5 1.2 10.7 2.4 27.1 2.8 36.4 0.7 20.5 0.3 19.9 12.3 17.2 5.5-1.2 14.1-2 25.1-2.3 18.9-0.6 21.6-1.7 18.8-7.9-0.6-1.4-1.1-3.3-1.1-4.4 0-5.5-21-8.3-33.7-4.5-2.7 0.9-2.8 0.5-4.3-25-1.4-23.4-2.5-32.4-4.5-36.7l-1.5-3.3 0.5 3c1.3 9.1 1.7 12.9 1.1 12.4-0.4-0.4-1.1-3.5-1.7-7-1.4-8.9-9.2-13.5-14.2-8.4zm-160.2 1.2c-2 2-1.7 5.1 1.9 18.3 3.1 11.5 3.2 13.5 0.6 16.7-3 3.8-2.5 7.1 1.5 10.8l3.4 3.3 2 17.2c2.1 18.3 2.7 20 7.3 20 7.4 0 9.8-7.8 8-26-1.4-14.4-2.6-13.6 16.7-12.2 18.8 1.4 22.1 0.4 22.1-7.2 0-7.4-4-8.9-25.7-9.4l-18.2-0.4-1-3.2c-1.4-4.5-2.2-8.6-1.8-8.6 0.3 0 2.9 0.5 5.8 1 3 0.6 10.8 1.7 17.4 2.5 6.6 0.9 13.6 1.8 15.5 2 7.5 1.1 12.6-5.8 9.5-13.1-1.6-3.9-4.6-5.4-11-5.4-2.4 0-9.7-0.7-16.2-1.5-6.5-0.9-13.8-1.8-16.2-2.1-2.4-0.3-7.1-1.4-10.5-2.5-7.5-2.3-9-2.4-11.1-0.2zm251.7-0.6c-1.8 0.6-3.5 1.6-3.9 2.4-0.3 0.8-1.3 1.5-2.3 1.5-4.5 0-4.5 2 0.3 24.7 2.5 12 4.9 23.7 5.3 26l0.7 4.3h-4.1c-11.8 0-10.6 11.9 1.7 17.4 4.2 1.9 6.6 3.6 7.6 5.6 2.9 5.7 9.7 7.5 14.2 3.8 0.7-0.6 3.3-0.5 6.9 0.1 40.7 7.6 52.7-14.3 26.1-47.4-21.6-26.8-41.6-41.5-52.5-38.4zm-534.7 1.5c-1 1-1.4 2.5-1.1 3.8 0.3 1.2 0.9 7 1.3 13.1l0.8 11 0.6-14.5c0.7-16.3 0.7-15.7-1.6-13.4zm160 0.1c-12.7 2.7-33.5 10-33.5 11.8 0 0.2 2.1-0.6 4.7-1.7 2.7-1.2 13.3-4.3 23.8-6.9 17.5-4.4 21.1-6.7 5-3.2zm18-0.2c-2.8 0.8-12 3.1-20.5 5.1-27.3 6.4-33.8 9.8-32.6 17.4 0.2 1.9 1 6.2 1.6 9.5 0.5 3.3 1.9 15.2 2.9 26.4 1.6 17.8 2.1 20.6 3.8 22 1.1 0.9 2.3 2.4 2.6 3.3 0.9 2.6 7 2.3 14.2-0.8 11.3-4.9 33.2-12.2 41.6-14 10.5-2.2 12.2-3.8 11.5-11-1.6-18.1-6.9-18.4-46.4-2.6l-12.2 4.9v-4.7-4.7l7.7-3.6c9.9-4.5 21.6-8.1 31.6-9.7 12.4-2 15-6.1 8.7-13.9-4.8-6.2-16.1-4.8-39.4 4.9-11.6 4.8-11.6 4.8-11.6 0.7 0-4 1.9-4.8 31.5-13.7l19-5.6-0.1-3.8c-0.2-6.6-4.9-8.6-13.9-6.1zm214 0.2c-12.8 2.7-33.5 10-33.5 11.8 0 0.2 2.1-0.5 4.7-1.7 2.7-1.1 13.3-4.2 23.8-6.8 17.5-4.5 21.1-6.8 5-3.3zm0 4.2c-32.1 8.2-36.5 10.5-35.1 18.3 1.5 9 3.5 25.5 4.7 39.6 1.2 13.7 1.6 16 3.5 17.8 1.1 1.2 2.4 2.9 2.7 3.8 1 2.6 7.1 1.9 16.5-2 12.7-5.3 29.9-11 39.4-13.1 12.3-2.6 14.9-8.4 8.9-20.2-4.1-7.9-6.7-7.6-38.4 4.6-9.3 3.6-17 6.3-17.2 6.2-6.5-6.9 12.7-17.8 38.5-21.9 12.9-2.1 15.6-6.6 8.6-14.3-5.2-5.6-16.3-4.1-39 5.3-11.6 4.8-11.6 4.8-11.6 0.6 0-4 2.8-5.2 33-14.1l17.5-5.1-0.1-3.8c-0.3-8.6-3.7-8.8-31.9-1.7zm52.6-4.5c-0.9 1-0.9 4.3-0.1 12.7 0.5 6.3 1.2 13.2 1.3 15.4 0.2 2.2 0.4-2.8 0.5-11.2 0.1-8.3 0.5-15.8 0.8-16.7 0.8-2-0.9-2.1-2.5-0.2zm199.4 0.3c-12.7 2.7-33.5 10-33.5 11.8 0 0.2 2.1-0.5 4.6-1.7 2.6-1.1 13.3-4.2 23.8-6.8 17.6-4.5 21.2-6.8 5.1-3.3zm18-0.1c-2.8 0.7-10.9 2.8-18 4.4-20.9 4.9-29.4 7.8-32.8 11.1-3.2 3.2-3.1 3-0.7 16.4 0.5 3.3 1.9 15.2 2.9 26.4 1.6 17.6 2.1 20.7 3.8 22 1 0.9 2.2 2.4 2.6 3.5 1.1 2.8 8.4 1.7 18.4-2.7 10.9-4.8 27.3-10.2 37.5-12.3 12.3-2.6 15.1-9 8.7-20.4-4.3-7.6-6.6-7.3-36.5 4.1-21.4 8.2-19.1 7.8-19.6 2.8l-0.4-4.1 6.6-3.3c8.7-4.3 20.5-8.1 32.4-10.4 13.9-2.7 16.1-5.6 10.1-13.4-5.2-6.8-16-5.6-40.1 4.4-11.4 4.7-11.4 4.7-11.4 0.6 0-3.9 4.4-5.8 33-14.2 17.5-5.1 17.5-5.1 17.8-8.1 0.6-6.6-5.3-9.4-14.3-6.8zm-441.7 0.9c-0.7 0.9-2.1 2.5-3.1 3.6-1.4 1.6-1.7 4.2-1.9 17.1l-0.2 15.3-0.7-14c-0.3-7.7-0.4-1.9-0.2 13 0.3 14.8 0.8 29.7 1.2 33 0.5 3.7 0.7-1 0.5-12.5l-0.2-18.5 1 23c1 23.9 1.2 24.9 5.5 26 3 0.7 10.2-3.7 10.4-6.4 0.1-0.9 0.1-12.8-0.1-26.5-0.1-16.5 0.1-24.6 0.8-24.2 0.9 0.6 18.7 31.5 23 40.1 1.1 2.2 2.3 5.9 2.6 8.1 1.3 7.5 6.7 10.6 11.6 6.6 4.5-3.7 3.6-34.3-2.1-67.2-1.9-10.8-3.1-14.2-4.5-12.8-0.3 0.4 0.6 7.2 2.1 15.2 1.4 8.1 2.5 15.4 2.3 16.4-0.2 0.9-0.7-0.8-1.1-3.8-1.1-7.5-5.7-28.1-6.8-30.3-1.6-2.8-6.3-2.2-9.3 1.4-3 3.5-2.9 3.2-1.5 8.4 1.6 5.5 6.8 33.9 6.3 34.4-0.2 0.2-1.4-2.1-2.7-5.1-11.5-26.1-28-46.2-32.9-40.3zm71.8 0.5c1 1 12.4 3.3 13.1 2.6 0.4-0.3-11.8-3.6-13.4-3.6-0.4 0-0.2 0.5 0.3 1zm418.4 12.5c0 0.7 0.6 1.5 1.4 1.8 0.8 0.3 1.7 2.4 2.1 4.6 0.6 3.9 2.6 5.4 4 3.1 1-1.7 5.6-1.1 9.1 1.1 1.9 1.2 5.8 2.3 9.1 2.5l5.8 0.6-5-3.3c-10.3-6.7-26.5-13.1-26.5-10.4zm-182 5.5c0 3.7 9.4 39.7 10.8 41 1.3 1.3 1.4 1.3 0.8-0.5-0.4-1.1-3-10.8-5.8-21.5-4.7-18.5-5.8-22-5.8-19zm19 4.6c0 0.8 1.6 10.4 3.5 21.2 2 10.8 3.7 20.3 3.8 21.1 0.6 4 25.1 7.7 32 4.8l3.8-1.6-1.6-3.7c-6.1-14.7-41.5-50.4-41.5-41.8zm-586.9 7.5c-1.4 4.7-1.3 5 1.5 4.3 1.6-0.4 1.9-1.2 1.6-4.5-0.5-5-1.6-5-3.1 0.2zm195.9 9.6c-6.4 2.2-9.6 4-8.6 5 0.1 0.1 4.5-1.5 9.6-3.7 10.8-4.5 10.2-5.1-1-1.3zm232 0c-6.4 2.2-9.6 4-8.6 5 0.1 0.1 4.5-1.5 9.6-3.7 10.8-4.5 10.2-5.1-1-1.3zm250.5 0.4c-5 1.7-8.1 3.6-7.1 4.6 0.2 0.3 14.8-5.6 15.5-6.3 0.9-0.9-2.7-0.1-8.4 1.7zm78.9 1.9c0.3 1.4 0.9 8.2 1.2 15.2 0.4 7.1 1.1 12.8 1.6 12.8 1.5 0-0.5-26.2-2.4-29-0.7-1.1-0.8-0.9-0.4 1zm-162.4 0.7c0 0.4 0.7 5.2 1.7 10.6l1.7 9.7 5 1.5c7.5 2.1 12.6 2.8 12.6 1.9 0-4-20.9-27.6-21-23.7zm-665 12.2c0 1.4 2.8 2.8 13 6.7 7.8 2.9 11.3 5.4 7.6 5.4-1.3 0-9.1-2.7-19.1-6.5-4.2-1.7 2.9 4.7 8 7.1 6.9 3.3 10 3.1 13.8-0.8l3.2-3.2-3.5-0.7c-2-0.4-7.4-2.4-12-4.4-4.7-2-9.1-3.9-9.8-4.2-0.6-0.3-1.2 0-1.2 0.6zm339.1 14.2c0 3 0.5 6.3 1 7.4 0.6 1.3 0.7-0.4 0.3-5-0.8-8.5-1.4-9.8-1.3-2.4zm-191.6 11.6c-12.4 0.7-27 2.5-28.4 3.4-1.2 0.7-0.7 0.9 1.9 0.4 1.9-0.3 11.9-0.8 22.2-1.1 10.4-0.4 18.8-1 18.8-1.4 0-1-3.9-2-7-1.8-1.4 0.1-4.8 0.3-7.5 0.5zm443.5 0c-10.9 0.6-25.5 2.5-27 3.4-1.1 0.7-0.5 0.8 2 0.4 1.9-0.3 12-0.8 22.3-1.1 13-0.5 18.7-1 18.4-1.8-0.4-1.1-6.3-1.5-15.7-0.9z"/>
</svg>